<svg width="907" height="237" viewBox="0 0 907 237" fill="none" xmlns="http://www.w3.org/2000/svg">
<path d="M419.008 15C425.342 15 430.842 16.0667 435.508 18.2001C440.175 20.2668 443.775 23.2669 446.309 27.2003C448.842 31.067 450.109 35.6338 450.109 40.9006C450.109 46.1674 448.842 50.7341 446.309 54.6009C443.775 58.4676 440.175 61.4677 435.508 63.6011C430.842 65.6678 425.342 66.7012 419.008 66.7012H406.808V85.0016H387.007V15H419.008ZM417.808 51.1008C421.875 51.1008 424.941 50.2341 427.008 48.5008C429.075 46.7007 430.108 44.1673 430.108 40.9006C430.108 37.6338 429.075 35.1005 427.008 33.3004C424.941 31.5004 421.875 30.6004 417.808 30.6004H406.808V51.1008H417.808Z" fill="white"/>
<path d="M526.364 15V85.0016H506.564V57.701H479.563V85.0016H459.763V15H479.563V41.3006H506.564V15H526.364Z" fill="white"/>
<path d="M587.232 71.4013H557.631L552.131 85.0016H531.931L562.832 15H582.332L613.333 85.0016H592.732L587.232 71.4013ZM581.432 56.8009L572.432 34.4004L563.432 56.8009H581.432Z" fill="white"/>
<path d="M618.946 15H638.747V69.3012H672.147V85.0016H618.946V15Z" fill="white"/>
<path d="M727.665 71.4013H698.064L692.564 85.0016H672.364L703.264 15H722.765L753.766 85.0016H733.165L727.665 71.4013ZM721.865 56.8009L712.865 34.4004L703.864 56.8009H721.865Z" fill="white"/>
<path d="M825.98 15V85.0016H809.68L778.779 47.7007V85.0016H759.379V15H775.679L806.58 52.3008V15H825.98Z" fill="white"/>
<path d="M884.148 85.0016L869.648 63.3011L855.348 85.0016H832.747L858.248 49.6008L833.847 15H856.148L870.148 35.2005L883.948 15H905.349L880.948 48.8008L906.949 85.0016H884.148Z" fill="white"/>
<path d="M422.308 231.405C414.908 231.405 408.241 229.838 402.308 226.705C396.441 223.571 391.807 219.238 388.407 213.704C385.074 208.171 383.407 201.938 383.407 195.004C383.407 188.071 385.074 181.837 388.407 176.304C391.807 170.77 396.441 166.437 402.308 163.303C408.241 160.17 414.908 158.603 422.308 158.603C429.708 158.603 436.342 160.17 442.209 163.303C448.142 166.437 452.775 170.77 456.109 176.304C459.509 181.837 461.209 188.071 461.209 195.004C461.209 201.938 459.509 208.171 456.109 213.704C452.775 219.238 448.142 223.571 442.209 226.705C436.342 229.838 429.708 231.405 422.308 231.405ZM422.308 215.004C425.842 215.004 429.042 214.171 431.908 212.504C434.775 210.838 437.042 208.504 438.708 205.504C440.375 202.438 441.209 198.937 441.209 195.004C441.209 191.071 440.375 187.604 438.708 184.604C437.042 181.537 434.775 179.17 431.908 177.504C429.042 175.837 425.842 175.004 422.308 175.004C418.775 175.004 415.575 175.837 412.708 177.504C409.841 179.17 407.574 181.537 405.908 184.604C404.241 187.604 403.408 191.071 403.408 195.004C403.408 198.937 404.241 202.438 405.908 205.504C407.574 208.504 409.841 210.838 412.708 212.504C415.575 214.171 418.775 215.004 422.308 215.004Z" fill="white"/>
<path d="M491.38 175.304V190.704H522.281V206.004H491.38V230.005H471.58V160.003H526.481V175.304H491.38Z" fill="white"/>
<path d="M584.644 175.304V190.704H615.544V206.004H584.644V230.005H564.843V160.003H619.745V175.304H584.644Z" fill="white"/>
<path d="M673.172 216.405H643.571L638.071 230.005H617.87L648.771 160.003H668.271L699.272 230.005H678.672L673.172 216.405ZM667.371 201.804L658.371 179.404L649.371 201.804H667.371Z" fill="white"/>
<path d="M716.27 175.704H694.77V160.003H757.471V175.704H736.071V230.005H716.27V175.704Z" fill="white"/>
<path d="M821.049 214.704V230.005H764.848V160.003H819.749V175.304H784.448V187.104H815.549V201.904H784.448V214.704H821.049Z" fill="white"/>
<rect x="83.2344" y="76.7695" width="108.567" height="108.567" transform="rotate(-45 83.2344 76.7695)" fill="#FDFDFD"/>
<rect y="160.004" width="108.567" height="108.567" transform="rotate(-45 0 160.004)" fill="#FDFDFD"/>
<rect x="166.469" y="160.004" width="108.567" height="108.567" transform="rotate(-45 166.469 160.004)" fill="#FDFDFD"/>
</svg>
